<?xml version="1.0" encoding="utf-8"?>
<!-- Generator: Adobe Illustrator 22.1.0, SVG Export Plug-In . SVG Version: 6.00 Build 0)  -->
<svg version="1.1"
	 id="NexT" xmlns:cc="http://creativecommons.org/ns#" xmlns:dc="http://purl.org/dc/elements/1.1/" xmlns:rdf="http://www.w3.org/1999/02/22-rdf-syntax-ns#" xmlns:svg="http://www.w3.org/2000/svg"
	 xmlns="http://www.w3.org/2000/svg" xmlns:xlink="http://www.w3.org/1999/xlink" x="0px" y="0px" viewBox="0 0 512 512"
	 style="enable-background:new 0 0 512 512;" xml:space="preserve">
<style type="text/css">
	.st0{fill:#222222;}
	.st1{fill:#FFFFFF;}
</style>
<rect x="57.6" y="57.6" class="st0" width="396.9" height="396.9"/>
<path class="st1" d="M301.9,223.5H351c0.5,0,1,0.4,1,1v19c0,0.5-0.4,1-1,1h-49.1c-0.5,0-1-0.4-1-1v-19
	C301,223.9,301.4,223.5,301.9,223.5z M359.1,179.9c0,18.3-14.8,33-33.2,33c-18.3,0-33-14.8-33-33c0-18.4,14.8-33.2,33-33.2
	C344.3,146.7,359.1,161.5,359.1,179.9z M338.6,179.9c0-7-5.7-12.7-12.7-12.7c-7,0-12.5,5.7-12.5,12.7c0,7,5.6,12.5,12.5,12.5
	C332.9,192.4,338.6,186.8,338.6,179.9z M239.9,265.9h-21.9c-0.5,0-1,0.4-1,1v32.2c0,0.8-1,1.3-1.6,0.7l-38.6-33.6
	c-0.2-0.2-0.4-0.2-0.6-0.2h-22.4c-0.5,0-1,0.4-1,1v95.6c0,0.5,0.4,1,1,1h21.8c0.5,0,1-0.4,1-1v-32.5c0-0.8,1-1.3,1.6-0.7l38.6,33.9
	c0.2,0.2,0.4,0.2,0.6,0.2h22.5c0.5,0,1-0.4,1-1v-95.6C240.8,266.4,240.4,265.9,239.9,265.9z M217,326.7v9.2c0,0.8-1,1.3-1.6,0.7
	l-38.5-33.5c-0.2-0.2-0.3-0.4-0.3-0.7v-9.2c0-0.8,1-1.3,1.6-0.7l38.5,33.5C216.9,326.2,217,326.4,217,326.7z M152.9,147.8v49
	c0,0.5,0.4,1,1,1h30.3c7.3,0,13.3,6,13.3,13.3c0,0.2,0,0.3,0,0.5c-0.2,7.1-6.1,12.8-13.3,12.8h-0.5h-29.8c-0.5,0-1,0.4-1,1v19.6
	c0,0.5,0.4,1,1,1H187c0,0,0.2,0,0.3,0c0,0,1,0,1-0.1c0,0.2,6.2-0.7,6.8-0.9c2.2-0.5,4.4-1.2,6.4-2.1c4-1.8,7.7-4.4,10.8-7.6
	c7.3-7.6,10.9-18.7,9.4-29.2c-1-7-4.2-13.6-9.1-18.8c-6.2-6.6-14.9-10.6-24-10.9c-0.4,0-0.9,0-1.3,0H187h-11.4c-0.5,0-1-0.4-1-1
	l0-6.6c0-0.5,0.4-1,1-1h58.9c0.5,0,1,0.4,1,1v74.7c0,0.5,0.4,1,1,1h21.8c0.5,0,1-0.4,1-1v-74.7c0-0.5,0.4-1,1-1h18.3
	c0.5,0,1-0.4,1-1v-19c0-0.5-0.4-1-1-1H153.8C153.3,146.9,152.9,147.3,152.9,147.8z M328.4,340.7c0,0.5-0.4,1-1,1h-21.6
	c-17.6,0-31.2-17.2-25.4-35.6c3.5-10.9,14-18,25.4-18h0h45.3c0.5,0,1-0.4,1-1v-21.7c0-0.5-0.4-1-1-1l-45.4,0
	c-28.4,0-50.6,23.6-50.4,52.2c0.2,27.2,23,48.9,50.2,48.9h45.6c0.5,0,1-0.4,1-1v-57.7c0-0.5-0.4-1-1-1h-46.5c-0.5,0-1,0.4-1,1v17.6
	c0,0.5,0.4,1,1,1h22.7c0.5,0,1,0.4,1,1V340.7z"/>
</svg>
